<mxfile host="app.diagrams.net" agent="Mozilla/5.0 (Windows NT 10.0; Win64; x64) AppleWebKit/537.36 (KHTML, like Gecko) Chrome/132.0.0.0 Safari/537.36 OPR/117.0.0.0" version="26.1.0">
  <diagram name="Page-1" id="Hgk5A8NGxYXcA8wS1fOd">
    <mxGraphModel dx="1905" dy="893" grid="1" gridSize="10" guides="1" tooltips="1" connect="1" arrows="1" fold="1" page="1" pageScale="1" pageWidth="4681" pageHeight="3300" math="0" shadow="0">
      <root>
        <mxCell id="0" />
        <mxCell id="1" parent="0" />
        <mxCell id="_czRCyyz4stW_Tamthie-1" value="&lt;b&gt;&lt;font style=&quot;font-size: 21px;&quot;&gt;Patient&lt;/font&gt;&lt;/b&gt;" style="shape=umlActor;verticalLabelPosition=bottom;verticalAlign=top;html=1;outlineConnect=0;fillColor=#dae8fc;strokeColor=#6c8ebf;" vertex="1" parent="1">
          <mxGeometry x="410" y="290" width="50" height="75" as="geometry" />
        </mxCell>
        <mxCell id="_czRCyyz4stW_Tamthie-3" value="" style="whiteSpace=wrap;html=1;aspect=fixed;" vertex="1" parent="1">
          <mxGeometry x="580" y="180" width="830" height="830" as="geometry" />
        </mxCell>
        <mxCell id="_czRCyyz4stW_Tamthie-4" value="&lt;b&gt;&lt;font style=&quot;font-size: 24px;&quot;&gt;UC diagram : Notification-service&lt;/font&gt;&lt;/b&gt;" style="text;html=1;align=center;verticalAlign=middle;whiteSpace=wrap;rounded=0;" vertex="1" parent="1">
          <mxGeometry x="775" y="210" width="440" height="30" as="geometry" />
        </mxCell>
        <mxCell id="_czRCyyz4stW_Tamthie-6" value="&lt;table&gt;&lt;tbody&gt;&lt;tr&gt;&lt;td&gt;&lt;span&gt;Gerer les rappels medicaux&lt;/span&gt;&lt;table&gt;&lt;tbody&gt;&lt;tr&gt;&lt;/tr&gt;&lt;/tbody&gt;&lt;/table&gt;&lt;/td&gt;&lt;/tr&gt;&lt;/tbody&gt;&lt;/table&gt;" style="ellipse;whiteSpace=wrap;html=1;fillColor=#dae8fc;strokeColor=#6c8ebf;fontSize=20;" vertex="1" parent="1">
          <mxGeometry x="660" y="302.5" width="300" height="77.5" as="geometry" />
        </mxCell>
        <mxCell id="_czRCyyz4stW_Tamthie-7" value="&lt;table&gt;&lt;tbody&gt;&lt;tr&gt;&lt;td&gt;Notifier lors de la transmission du code&amp;nbsp;&lt;table&gt;&lt;tbody&gt;&lt;tr&gt;&lt;/tr&gt;&lt;/tbody&gt;&lt;/table&gt;&lt;/td&gt;&lt;/tr&gt;&lt;/tbody&gt;&lt;/table&gt;" style="ellipse;whiteSpace=wrap;html=1;fillColor=#dae8fc;strokeColor=#6c8ebf;fontSize=20;" vertex="1" parent="1">
          <mxGeometry x="620" y="510" width="400" height="90" as="geometry" />
        </mxCell>
        <mxCell id="_czRCyyz4stW_Tamthie-8" value="&lt;table&gt;&lt;tbody&gt;&lt;tr&gt;&lt;td&gt;Notifier le pharmacien en cas de rupture de stock&lt;table&gt;&lt;tbody&gt;&lt;tr&gt;&lt;/tr&gt;&lt;/tbody&gt;&lt;/table&gt;&lt;/td&gt;&lt;/tr&gt;&lt;/tbody&gt;&lt;/table&gt;" style="ellipse;whiteSpace=wrap;html=1;fillColor=#dae8fc;strokeColor=#6c8ebf;fontSize=20;" vertex="1" parent="1">
          <mxGeometry x="640" y="820" width="390" height="90" as="geometry" />
        </mxCell>
        <mxCell id="_czRCyyz4stW_Tamthie-11" value="&lt;table&gt;&lt;tbody&gt;&lt;tr&gt;&lt;td&gt;Recevoir un Message kafka&lt;table&gt;&lt;tbody&gt;&lt;tr&gt;&lt;/tr&gt;&lt;/tbody&gt;&lt;/table&gt;&lt;/td&gt;&lt;/tr&gt;&lt;/tbody&gt;&lt;/table&gt;" style="ellipse;whiteSpace=wrap;html=1;fillColor=#dae8fc;strokeColor=#6c8ebf;gradientColor=#7ea6e0;fontSize=20;" vertex="1" parent="1">
          <mxGeometry x="1090" y="517.5" width="310" height="75" as="geometry" />
        </mxCell>
        <mxCell id="_czRCyyz4stW_Tamthie-12" value="" style="edgeStyle=none;html=1;endArrow=none;verticalAlign=bottom;rounded=0;exitX=1;exitY=0.3333333333333333;exitDx=0;exitDy=0;exitPerimeter=0;entryX=0;entryY=0.5;entryDx=0;entryDy=0;" edge="1" parent="1" source="_czRCyyz4stW_Tamthie-1" target="_czRCyyz4stW_Tamthie-6">
          <mxGeometry width="160" relative="1" as="geometry">
            <mxPoint x="1060" y="630" as="sourcePoint" />
            <mxPoint x="1220" y="630" as="targetPoint" />
          </mxGeometry>
        </mxCell>
        <mxCell id="_czRCyyz4stW_Tamthie-20" value="&lt;br&gt;&lt;table&gt;&lt;tbody&gt;&lt;tr&gt;&lt;td&gt;&lt;span&gt;Envoyer code (SMS /Email)&lt;/span&gt;&lt;table&gt;&lt;tbody&gt;&lt;tr&gt;&lt;/tr&gt;&lt;/tbody&gt;&lt;/table&gt;&lt;/td&gt;&lt;/tr&gt;&lt;/tbody&gt;&lt;/table&gt;&lt;div&gt;&lt;br&gt;&lt;/div&gt;" style="ellipse;whiteSpace=wrap;html=1;fillColor=#dae8fc;strokeColor=#6c8ebf;fontSize=20;" vertex="1" parent="1">
          <mxGeometry x="670" y="410" width="300" height="70" as="geometry" />
        </mxCell>
        <mxCell id="_czRCyyz4stW_Tamthie-26" value="&lt;b&gt;&lt;font style=&quot;font-size: 22px;&quot;&gt;Medcin&lt;/font&gt;&lt;/b&gt;" style="shape=umlActor;verticalLabelPosition=bottom;verticalAlign=top;html=1;outlineConnect=0;fillColor=#dae8fc;strokeColor=#6c8ebf;" vertex="1" parent="1">
          <mxGeometry x="410" y="510" width="50" height="75" as="geometry" />
        </mxCell>
        <mxCell id="_czRCyyz4stW_Tamthie-28" value="&amp;lt;&amp;lt;include&amp;gt;&amp;gt;" style="edgeStyle=none;html=1;endArrow=open;verticalAlign=bottom;dashed=1;labelBackgroundColor=none;rounded=0;exitX=1;exitY=0.5;exitDx=0;exitDy=0;" edge="1" parent="1" source="_czRCyyz4stW_Tamthie-20" target="_czRCyyz4stW_Tamthie-11">
          <mxGeometry width="160" relative="1" as="geometry">
            <mxPoint x="860" y="650" as="sourcePoint" />
            <mxPoint x="1020" y="650" as="targetPoint" />
          </mxGeometry>
        </mxCell>
        <mxCell id="_czRCyyz4stW_Tamthie-29" value="&lt;b&gt;&lt;font style=&quot;font-size: 20px;&quot;&gt;Pharmacien&lt;/font&gt;&lt;/b&gt;" style="shape=umlActor;verticalLabelPosition=bottom;verticalAlign=top;html=1;outlineConnect=0;fillColor=#dae8fc;strokeColor=#6c8ebf;" vertex="1" parent="1">
          <mxGeometry x="400" y="750" width="50" height="75" as="geometry" />
        </mxCell>
        <mxCell id="_czRCyyz4stW_Tamthie-30" value="&amp;lt;&amp;lt;include&amp;gt;&amp;gt;" style="edgeStyle=none;html=1;endArrow=open;verticalAlign=bottom;dashed=1;labelBackgroundColor=none;rounded=0;entryX=0.5;entryY=1;entryDx=0;entryDy=0;exitX=1;exitY=0.5;exitDx=0;exitDy=0;" edge="1" parent="1" source="_czRCyyz4stW_Tamthie-8" target="_czRCyyz4stW_Tamthie-11">
          <mxGeometry width="160" relative="1" as="geometry">
            <mxPoint x="860" y="650" as="sourcePoint" />
            <mxPoint x="1020" y="650" as="targetPoint" />
          </mxGeometry>
        </mxCell>
        <mxCell id="_czRCyyz4stW_Tamthie-33" value="" style="edgeStyle=none;html=1;endArrow=none;verticalAlign=bottom;rounded=0;entryX=0;entryY=0.5;entryDx=0;entryDy=0;exitX=1;exitY=1;exitDx=0;exitDy=0;exitPerimeter=0;" edge="1" parent="1" source="_czRCyyz4stW_Tamthie-1" target="_czRCyyz4stW_Tamthie-20">
          <mxGeometry width="160" relative="1" as="geometry">
            <mxPoint x="1020" y="660" as="sourcePoint" />
            <mxPoint x="1180" y="660" as="targetPoint" />
          </mxGeometry>
        </mxCell>
        <mxCell id="_czRCyyz4stW_Tamthie-34" value="&amp;lt;&amp;lt;include&amp;gt;&amp;gt;" style="edgeStyle=none;html=1;endArrow=open;verticalAlign=bottom;dashed=1;labelBackgroundColor=none;rounded=0;exitX=1;exitY=0.5;exitDx=0;exitDy=0;entryX=0.5;entryY=0;entryDx=0;entryDy=0;" edge="1" parent="1" source="_czRCyyz4stW_Tamthie-6" target="_czRCyyz4stW_Tamthie-11">
          <mxGeometry width="160" relative="1" as="geometry">
            <mxPoint x="1200" y="660" as="sourcePoint" />
            <mxPoint x="1360" y="660" as="targetPoint" />
          </mxGeometry>
        </mxCell>
        <mxCell id="_czRCyyz4stW_Tamthie-35" value="" style="fontStyle=1;align=center;verticalAlign=middle;childLayout=stackLayout;horizontal=1;horizontalStack=0;resizeParent=1;resizeParentMax=0;resizeLast=0;marginBottom=0;" vertex="1" parent="1">
          <mxGeometry x="1540" y="580" width="110" height="40" as="geometry" />
        </mxCell>
        <mxCell id="_czRCyyz4stW_Tamthie-36" value="&amp;lt;&amp;lt;system&amp;gt;&amp;gt;" style="html=1;align=center;spacing=0;verticalAlign=middle;strokeColor=none;fillColor=none;whiteSpace=wrap;spacingTop=3;" vertex="1" parent="_czRCyyz4stW_Tamthie-35">
          <mxGeometry width="110" height="20" as="geometry" />
        </mxCell>
        <mxCell id="_czRCyyz4stW_Tamthie-37" value="Kafka producer" style="html=1;align=center;spacing=0;verticalAlign=middle;strokeColor=none;fillColor=none;whiteSpace=wrap;spacingBottom=4;fontStyle=1" vertex="1" parent="_czRCyyz4stW_Tamthie-35">
          <mxGeometry y="20" width="110" height="20" as="geometry" />
        </mxCell>
        <mxCell id="_czRCyyz4stW_Tamthie-38" value="" style="edgeStyle=none;html=1;endArrow=none;verticalAlign=bottom;rounded=0;exitX=1;exitY=0.5;exitDx=0;exitDy=0;entryX=0;entryY=0.75;entryDx=0;entryDy=0;" edge="1" parent="1" source="_czRCyyz4stW_Tamthie-11" target="_czRCyyz4stW_Tamthie-36">
          <mxGeometry width="160" relative="1" as="geometry">
            <mxPoint x="1510" y="670" as="sourcePoint" />
            <mxPoint x="1670" y="670" as="targetPoint" />
          </mxGeometry>
        </mxCell>
        <mxCell id="_czRCyyz4stW_Tamthie-39" value="" style="edgeStyle=none;html=1;endArrow=none;verticalAlign=bottom;rounded=0;" edge="1" parent="1" source="_czRCyyz4stW_Tamthie-29" target="_czRCyyz4stW_Tamthie-8">
          <mxGeometry width="160" relative="1" as="geometry">
            <mxPoint x="920" y="580" as="sourcePoint" />
            <mxPoint x="1080" y="580" as="targetPoint" />
          </mxGeometry>
        </mxCell>
        <mxCell id="_czRCyyz4stW_Tamthie-40" value="&lt;table&gt;&lt;tbody&gt;&lt;tr&gt;&lt;td&gt;Notifier&amp;nbsp; après validation de l’ordonnance&lt;table&gt;&lt;tbody&gt;&lt;tr&gt;&lt;/tr&gt;&lt;/tbody&gt;&lt;/table&gt;&lt;/td&gt;&lt;/tr&gt;&lt;/tbody&gt;&lt;/table&gt;" style="ellipse;whiteSpace=wrap;html=1;fillColor=#dae8fc;strokeColor=#6c8ebf;fontSize=20;" vertex="1" parent="1">
          <mxGeometry x="625" y="660" width="390" height="90" as="geometry" />
        </mxCell>
        <mxCell id="_czRCyyz4stW_Tamthie-41" value="" style="edgeStyle=none;html=1;endArrow=none;verticalAlign=bottom;rounded=0;exitX=0.5;exitY=0.5;exitDx=0;exitDy=0;exitPerimeter=0;" edge="1" parent="1" source="_czRCyyz4stW_Tamthie-26">
          <mxGeometry width="160" relative="1" as="geometry">
            <mxPoint x="470" y="585" as="sourcePoint" />
            <mxPoint x="620" y="555" as="targetPoint" />
          </mxGeometry>
        </mxCell>
        <mxCell id="_czRCyyz4stW_Tamthie-42" value="" style="edgeStyle=none;html=1;endArrow=none;verticalAlign=bottom;rounded=0;exitX=1;exitY=1;exitDx=0;exitDy=0;exitPerimeter=0;entryX=0;entryY=0.5;entryDx=0;entryDy=0;" edge="1" parent="1" source="_czRCyyz4stW_Tamthie-26" target="_czRCyyz4stW_Tamthie-40">
          <mxGeometry width="160" relative="1" as="geometry">
            <mxPoint x="840" y="610" as="sourcePoint" />
            <mxPoint x="1000" y="610" as="targetPoint" />
          </mxGeometry>
        </mxCell>
        <mxCell id="_czRCyyz4stW_Tamthie-43" value="&amp;lt;&amp;lt;include&amp;gt;&amp;gt;" style="edgeStyle=none;html=1;endArrow=open;verticalAlign=bottom;dashed=1;labelBackgroundColor=none;rounded=0;entryX=0;entryY=0.5;entryDx=0;entryDy=0;exitX=1;exitY=0.5;exitDx=0;exitDy=0;" edge="1" parent="1" source="_czRCyyz4stW_Tamthie-7" target="_czRCyyz4stW_Tamthie-11">
          <mxGeometry width="160" relative="1" as="geometry">
            <mxPoint x="770" y="610" as="sourcePoint" />
            <mxPoint x="930" y="610" as="targetPoint" />
          </mxGeometry>
        </mxCell>
        <mxCell id="_czRCyyz4stW_Tamthie-44" value="&amp;lt;&amp;lt;include&amp;gt;&amp;gt;" style="edgeStyle=none;html=1;endArrow=open;verticalAlign=bottom;dashed=1;labelBackgroundColor=none;rounded=0;exitX=1;exitY=0.5;exitDx=0;exitDy=0;" edge="1" parent="1" source="_czRCyyz4stW_Tamthie-40" target="_czRCyyz4stW_Tamthie-11">
          <mxGeometry width="160" relative="1" as="geometry">
            <mxPoint x="770" y="610" as="sourcePoint" />
            <mxPoint x="930" y="610" as="targetPoint" />
          </mxGeometry>
        </mxCell>
      </root>
    </mxGraphModel>
  </diagram>
</mxfile>
